<svg xmlns="http://www.w3.org/2000/svg" xmlns:xlink="http://www.w3.org/1999/xlink" width="100" zoomAndPan="magnify" viewBox="0 0 75 74.999997" height="100" preserveAspectRatio="xMidYMid meet" version="1.0"><defs><clipPath id="3dd0e836c9"><path d="M 23 4.421875 L 54 4.421875 L 54 69 L 23 69 Z M 23 4.421875 " clip-rule="nonzero"/></clipPath><clipPath id="721a64db41"><path d="M 28 60 L 55 60 L 55 70.421875 L 28 70.421875 Z M 28 60 " clip-rule="nonzero"/></clipPath><clipPath id="4d11f9415c"><path d="M 37 4.421875 L 40 4.421875 L 40 10 L 37 10 Z M 37 4.421875 " clip-rule="nonzero"/></clipPath><clipPath id="5922f08183"><path d="M 56 40 L 59.5625 40 L 59.5625 44 L 56 44 Z M 56 40 " clip-rule="nonzero"/></clipPath><clipPath id="d4ad079f8c"><path d="M 56 40 L 59.5625 40 L 59.5625 43 L 56 43 Z M 56 40 " clip-rule="nonzero"/></clipPath><clipPath id="bdcde6c9c0"><path d="M 15.3125 43 L 19 43 L 19 47 L 15.3125 47 Z M 15.3125 43 " clip-rule="nonzero"/></clipPath><clipPath id="43a0c14a9a"><path d="M 15.3125 43 L 19 43 L 19 45 L 15.3125 45 Z M 15.3125 43 " clip-rule="nonzero"/></clipPath><clipPath id="620277fe87"><path d="M 28 65 L 43 65 L 43 70.421875 L 28 70.421875 Z M 28 65 " clip-rule="nonzero"/></clipPath></defs><g clip-path="url(#3dd0e836c9)"><path fill="#fa8ab6" d="M 50.617188 58.308594 C 51.160156 59.828125 53.21875 60.589844 53.027344 62.351562 C 52.332031 64.703125 47.929688 65.753906 45.867188 66.730469 C 43.101562 67.914062 40.109375 68.5625 37.097656 68.277344 C 34.371094 68.046875 31.597656 66.820312 30.308594 64.285156 C 29.757812 63.800781 29.691406 62.882812 29.335938 62.246094 C 28.601562 60.5 27.851562 58.761719 27.167969 56.996094 C 25.289062 52.171875 24.367188 47.003906 23.800781 41.871094 C 23.03125 33.964844 23.101562 25.582031 26.949219 18.414062 C 28.789062 14.265625 32.640625 10.636719 36.976562 9.453125 C 36.929688 7.453125 37.28125 5.492188 38.734375 4.710938 C 41.023438 4.421875 41.304688 6.746094 41.039062 9.109375 C 42.417969 9.257812 43.796875 9.691406 45.132812 10.464844 C 51.492188 13.984375 51.765625 22.253906 50.902344 28.652344 C 50.261719 33.71875 49.476562 38.773438 49.070312 43.867188 C 48.824219 48.695312 48.824219 53.75 50.617188 58.308594 " fill-opacity="1" fill-rule="nonzero"/></g><g clip-path="url(#721a64db41)"><path fill="#db5297" d="M 54.257812 61.46875 C 54.460938 62.328125 54.164062 63.191406 53.789062 63.957031 C 52.265625 67.074219 48.730469 68.203125 45.664062 69.222656 C 42.921875 70.265625 39.96875 70.417969 37.066406 70.308594 C 34.722656 69.976562 32.144531 69.6875 30.289062 68.089844 C 29.542969 67.398438 28.765625 66.632812 28.4375 65.644531 C 28.109375 64.585938 28.949219 63.175781 30.125 63.859375 C 30.882812 64.421875 31.457031 65.199219 32.167969 65.824219 C 33.148438 66.691406 34.5 67.140625 35.730469 67.453125 C 37.78125 67.90625 39.953125 67.835938 41.988281 67.410156 C 45.125 66.925781 48.171875 65.675781 50.753906 63.824219 C 52.621094 62.402344 51.53125 61.640625 52.46875 60.566406 C 53.152344 59.960938 54.160156 60.679688 54.257812 61.46875 " fill-opacity="1" fill-rule="nonzero"/></g><path fill="#ffffff" d="M 24.371094 31.933594 C 24.578125 24.851562 26.75 17.183594 32.277344 12.414062 C 33.292969 11.773438 34.386719 13.167969 32.789062 14.132812 C 29.457031 17.351562 27.558594 21.820312 26.632812 26.300781 C 26.265625 28.15625 26.0625 30.042969 26.023438 31.933594 C 26.019531 33.007812 24.371094 33.015625 24.371094 31.933594 " fill-opacity="1" fill-rule="nonzero"/><path fill="#ffffff" d="M 27.292969 54.507812 C 26.101562 51.519531 25.40625 48.386719 25.066406 45.191406 C 24.769531 43.3125 24.585938 41.421875 24.503906 39.519531 C 24.472656 39.257812 24.492188 38.992188 24.660156 38.78125 C 25.066406 38.210938 26.074219 38.464844 26.132812 39.171875 C 26.160156 39.511719 26.171875 39.851562 26.191406 40.191406 C 26.363281 43.117188 26.820312 46.019531 27.300781 48.90625 C 27.554688 50.160156 27.929688 51.390625 28.363281 52.59375 C 28.507812 53.21875 29.019531 53.855469 28.816406 54.507812 C 28.570312 55.160156 27.535156 55.171875 27.292969 54.507812 " fill-opacity="1" fill-rule="nonzero"/><g clip-path="url(#4d11f9415c)"><path fill="#ffffff" d="M 37.304688 8.859375 C 37.347656 7.480469 37.492188 5.273438 39.132812 4.902344 C 39.722656 4.890625 39.839844 5.78125 39.265625 5.917969 C 38.324219 6.523438 38.414062 7.871094 38.335938 8.859375 C 38.320312 9.539062 37.316406 9.539062 37.304688 8.859375 " fill-opacity="1" fill-rule="nonzero"/></g><path fill="#ffffff" d="M 34.179688 24.691406 C 34.28125 26.496094 32.566406 28.433594 30.691406 27.765625 C 28.992188 27.148438 28.757812 24.824219 29.632812 23.441406 C 30.996094 21.257812 34.113281 22.136719 34.179688 24.691406 " fill-opacity="1" fill-rule="nonzero"/><path fill="#ffffff" d="M 46.46875 23.273438 C 47.554688 25.003906 46.042969 27.667969 43.996094 27.589844 C 41.800781 27.542969 40.8125 25.082031 42.03125 23.367188 C 43.175781 21.785156 45.359375 21.492188 46.46875 23.273438 " fill-opacity="1" fill-rule="nonzero"/><path fill="#000000" d="M 31.050781 26.851562 C 28.867188 26.191406 30.105469 22.578125 32.230469 23.242188 C 34.570312 23.867188 33.109375 27.292969 31.050781 26.851562 " fill-opacity="1" fill-rule="nonzero"/><path fill="#000000" d="M 43.757812 26.679688 C 41.644531 26.167969 42.472656 22.855469 44.511719 23.09375 C 47.117188 23.488281 46.074219 27.042969 43.757812 26.679688 " fill-opacity="1" fill-rule="nonzero"/><path fill="#000000" d="M 37.488281 28.820312 C 36.175781 28.636719 35.441406 27.269531 35.648438 26.03125 C 35.703125 25.695312 36.199219 25.761719 36.160156 26.101562 C 35.960938 27.371094 36.839844 28.523438 38.183594 28.324219 C 38.890625 28.140625 39.242188 27.367188 39.382812 26.710938 C 39.429688 26.480469 39.4375 26.246094 39.429688 26.011719 C 39.425781 25.875 39.550781 25.753906 39.6875 25.753906 C 40.097656 25.761719 39.921875 26.472656 39.902344 26.738281 C 39.710938 27.929688 38.824219 29.140625 37.488281 28.820312 " fill-opacity="1" fill-rule="nonzero"/><path fill="#000000" d="M 56.867188 43.996094 C 56.824219 42.980469 56.90625 41.90625 56.6875 40.914062 C 56.066406 39.972656 55.367188 39.078125 54.703125 38.167969 C 53.734375 36.878906 52.703125 35.582031 51.644531 34.378906 C 50.804688 33.4375 49.945312 32.515625 49.019531 31.65625 C 48.945312 31.613281 48.894531 31.53125 48.894531 31.4375 C 48.894531 31.296875 49.011719 31.179688 49.152344 31.179688 C 49.277344 31.179688 49.359375 31.265625 49.441406 31.34375 C 49.542969 31.4375 49.644531 31.535156 49.746094 31.632812 C 50.339844 32.210938 50.917969 32.808594 51.480469 33.421875 C 53.003906 35.089844 54.398438 36.871094 55.734375 38.695312 C 56.199219 39.339844 56.691406 39.96875 57.125 40.636719 C 57.269531 40.914062 57.277344 41.238281 57.304688 41.542969 C 57.339844 41.980469 57.351562 42.40625 57.363281 42.847656 C 57.375 43.230469 57.378906 43.613281 57.382812 43.996094 C 57.382812 44.136719 57.265625 44.257812 57.125 44.257812 C 56.984375 44.257812 56.867188 44.136719 56.867188 43.996094 " fill-opacity="1" fill-rule="nonzero"/><path fill="#000000" d="M 58.289062 44.21875 C 57.910156 43.144531 57.476562 42.117188 56.796875 41.199219 C 56.804688 41.203125 56.808594 41.210938 56.8125 41.214844 C 56.824219 41.222656 56.832031 41.230469 56.839844 41.238281 C 56.839844 41.238281 56.839844 41.238281 56.839844 41.234375 C 56.507812 40.90625 57.058594 40.542969 57.273438 40.972656 C 57.9375 41.902344 58.390625 42.949219 58.765625 44.019531 C 58.886719 44.332031 58.429688 44.53125 58.289062 44.21875 " fill-opacity="1" fill-rule="nonzero"/><g clip-path="url(#5922f08183)"><path fill="#000000" d="M 58.839844 43.394531 C 58.464844 42.796875 58.0625 42.226562 57.546875 41.761719 C 57.316406 41.527344 57.113281 41.359375 56.882812 41.15625 C 56.742188 40.972656 56.941406 40.6875 57.164062 40.761719 C 57.410156 40.875 57.585938 41.101562 57.789062 41.277344 C 58.390625 41.808594 58.863281 42.457031 59.285156 43.132812 C 59.449219 43.425781 59.023438 43.683594 58.839844 43.394531 " fill-opacity="1" fill-rule="nonzero"/></g><g clip-path="url(#d4ad079f8c)"><path fill="#000000" d="M 58.941406 42.226562 C 58.5625 41.898438 58.164062 41.582031 57.710938 41.351562 C 57.472656 41.238281 57.234375 41.113281 56.984375 41.03125 C 56.929688 41.03125 56.875 41.015625 56.832031 40.976562 C 56.679688 40.859375 56.707031 40.601562 56.886719 40.535156 C 57.148438 40.460938 57.398438 40.660156 57.636719 40.746094 C 58.261719 41.003906 58.804688 41.417969 59.308594 41.863281 C 59.542969 42.105469 59.191406 42.460938 58.941406 42.226562 " fill-opacity="1" fill-rule="nonzero"/></g><path fill="#000000" d="M 17.238281 47 C 17.105469 46.984375 16.988281 46.847656 17.015625 46.710938 C 17.183594 45.882812 17.339844 45.054688 17.542969 44.234375 C 18.15625 41.832031 18.949219 39.460938 20.128906 37.273438 C 21.023438 35.542969 22.007812 33.859375 23.265625 32.363281 C 23.4375 32.152344 23.613281 31.9375 23.785156 31.722656 C 23.828125 31.644531 23.914062 31.589844 24.011719 31.589844 C 24.152344 31.589844 24.269531 31.707031 24.269531 31.847656 C 24.269531 31.964844 24.183594 32.050781 24.113281 32.136719 C 23.851562 32.460938 23.585938 32.78125 23.328125 33.113281 C 22.300781 34.386719 21.484375 35.804688 20.726562 37.25 C 20.03125 38.527344 19.4375 39.863281 18.96875 41.238281 C 18.476562 42.6875 18.042969 44.191406 17.746094 45.691406 C 17.675781 46.054688 17.601562 46.417969 17.527344 46.78125 C 17.507812 46.917969 17.375 47.023438 17.238281 47 " fill-opacity="1" fill-rule="nonzero"/><path fill="#000000" d="M 18.398438 46.71875 C 18.214844 45.964844 18.019531 45.214844 17.824219 44.464844 C 17.792969 44.175781 17.492188 43.511719 17.960938 43.464844 C 18.300781 43.480469 18.203125 43.898438 18.28125 44.128906 C 18.472656 44.949219 18.707031 45.757812 18.898438 46.582031 C 18.976562 46.90625 18.496094 47.042969 18.398438 46.71875 " fill-opacity="1" fill-rule="nonzero"/><g clip-path="url(#bdcde6c9c0)"><path fill="#000000" d="M 15.890625 46.683594 C 15.761719 46.625 15.703125 46.472656 15.753906 46.34375 C 15.847656 46.109375 15.953125 45.875 16.078125 45.65625 C 16.53125 44.894531 17.054688 44.164062 17.699219 43.546875 C 17.992188 43.292969 18.351562 43.753906 18.011719 43.960938 C 17.402344 44.5625 16.882812 45.277344 16.46875 46.015625 C 16.382812 46.1875 16.300781 46.367188 16.230469 46.542969 C 16.179688 46.675781 16.019531 46.734375 15.890625 46.683594 " fill-opacity="1" fill-rule="nonzero"/></g><g clip-path="url(#43a0c14a9a)"><path fill="#000000" d="M 15.363281 44.601562 C 15.308594 44.472656 15.375 44.320312 15.5 44.265625 C 15.765625 44.148438 16.03125 44.039062 16.292969 43.921875 C 16.726562 43.71875 17.152344 43.5 17.625 43.410156 C 17.90625 43.3125 18.335938 43.371094 18.179688 43.761719 C 18.121094 43.863281 18.007812 43.90625 17.902344 43.882812 C 17.785156 43.898438 17.675781 43.929688 17.5625 43.957031 C 17.179688 44.042969 16.839844 44.242188 16.488281 44.398438 C 16.226562 44.515625 15.964844 44.625 15.703125 44.738281 C 15.574219 44.796875 15.417969 44.730469 15.363281 44.601562 " fill-opacity="1" fill-rule="nonzero"/></g><path fill="#ffffff" d="M 30.875 25.703125 C 30.863281 25.699219 30.855469 25.699219 30.84375 25.695312 C 30.566406 25.632812 30.480469 25.320312 30.5 25.070312 C 30.527344 24.804688 30.808594 24.59375 31.074219 24.664062 C 31.683594 24.855469 31.601562 25.710938 30.992188 25.710938 C 30.953125 25.710938 30.917969 25.707031 30.875 25.703125 " fill-opacity="1" fill-rule="nonzero"/><path fill="#ffffff" d="M 31.429688 24.453125 C 31.363281 24.445312 31.300781 24.417969 31.238281 24.371094 C 30.800781 24.035156 31.347656 23.332031 31.789062 23.625 C 32.1875 23.910156 31.878906 24.460938 31.492188 24.460938 C 31.472656 24.460938 31.449219 24.457031 31.429688 24.453125 " fill-opacity="1" fill-rule="nonzero"/><path fill="#ffffff" d="M 43.613281 25.871094 C 43.589844 25.867188 43.5625 25.863281 43.539062 25.851562 C 42.949219 25.679688 43.207031 24.722656 43.769531 24.734375 C 44.144531 24.742188 44.253906 25.074219 44.1875 25.378906 C 44.132812 25.640625 43.949219 25.878906 43.6875 25.878906 C 43.664062 25.878906 43.640625 25.875 43.613281 25.871094 " fill-opacity="1" fill-rule="nonzero"/><path fill="#ffffff" d="M 44.082031 24.523438 C 44.039062 24.515625 43.988281 24.496094 43.945312 24.46875 C 43.46875 24.171875 43.929688 23.476562 44.40625 23.664062 C 44.851562 23.871094 44.53125 24.527344 44.140625 24.527344 C 44.121094 24.527344 44.101562 24.523438 44.082031 24.523438 " fill-opacity="1" fill-rule="nonzero"/><g clip-path="url(#620277fe87)"><path fill="#ffffff" d="M 37.316406 70.027344 C 34.667969 69.859375 31.875 69.183594 29.945312 67.253906 C 29.609375 66.917969 29.324219 66.539062 29.058594 66.148438 C 28.898438 65.949219 28.730469 65.585938 29.089844 65.496094 C 29.234375 65.472656 29.355469 65.574219 29.386719 65.707031 C 29.636719 66.113281 29.898438 66.4375 30.207031 66.78125 C 32.027344 68.683594 34.726562 69.332031 37.269531 69.507812 C 38.867188 69.621094 40.472656 69.496094 42.042969 69.207031 C 42.371094 69.15625 42.464844 69.652344 42.128906 69.714844 C 40.542969 70.007812 38.925781 70.136719 37.316406 70.027344 " fill-opacity="1" fill-rule="nonzero"/></g><path fill="#ffffff" d="M 43.339844 69.316406 C 43.304688 68.953125 43.773438 69.007812 44.007812 68.921875 C 44.320312 68.847656 44.628906 68.757812 44.929688 68.660156 C 45.550781 68.453125 46.160156 68.226562 46.75 67.945312 C 46.878906 67.886719 47.035156 67.945312 47.09375 68.070312 C 47.152344 68.199219 47.09375 68.355469 46.964844 68.414062 C 46.484375 68.640625 45.988281 68.839844 45.484375 69.011719 C 44.976562 69.199219 44.457031 69.355469 43.925781 69.46875 C 43.714844 69.523438 43.398438 69.613281 43.339844 69.316406 " fill-opacity="1" fill-rule="nonzero"/></svg>